<svg width="32" height="32" viewBox="0 0 32 32" fill="none" xmlns="http://www.w3.org/2000/svg">
  <!-- 香蕉形状 -->
  <path d="M8 6C8 6 12 4 16 6C20 8 24 12 24 18C24 24 20 26 16 26C12 26 8 22 8 16C8 12 8 8 8 6Z" fill="#FFD700" stroke="#FFA500" stroke-width="1"/>
  
  <!-- 香蕉纹理 -->
  <path d="M10 8C10 8 13 7 15 9C17 11 19 14 19 18C19 22 17 23 15 23C13 23 10 20 10 16C10 13 10 10 10 8Z" fill="#FFED4E"/>
  
  <!-- 香蕉顶部 -->
  <ellipse cx="8.5" cy="6.5" rx="1.5" ry="2" fill="#8B4513"/>
  
  <!-- AI 元素 - 电路图案 -->
  <g stroke="#4A90E2" stroke-width="0.8" fill="none">
    <circle cx="14" cy="12" r="1.5"/>
    <circle cx="18" cy="16" r="1.5"/>
    <circle cx="14" cy="20" r="1.5"/>
    <line x1="15.5" y1="12" x2="16.5" y2="16"/>
    <line x1="16.5" y1="16" x2="15.5" y2="20"/>
  </g>
  
  <!-- 纳米粒子效果 -->
  <g fill="#9333EA" opacity="0.7">
    <circle cx="12" cy="10" r="0.8"/>
    <circle cx="20" cy="14" r="0.6"/>
    <circle cx="16" cy="22" r="0.7"/>
    <circle cx="22" cy="20" r="0.5"/>
  </g>
</svg>